<svg width="323" height="68" viewBox="0 0 323 68" fill="none" xmlns="http://www.w3.org/2000/svg">
<path fill-rule="evenodd" clip-rule="evenodd" d="M132.244 33.9138C132.244 48.1502 143.325 59.6874 156.985 59.6874V59.6946C168.536 59.6946 178.229 51.4476 180.957 40.2949H189.531C186.611 55.9699 173.151 67.8276 156.985 67.8276C138.689 67.8276 123.854 52.644 123.854 33.9138C123.854 15.1836 138.689 0 156.985 0C173.151 0 186.611 11.8577 189.531 27.5398H180.957C178.236 16.3872 168.536 8.14017 156.985 8.14017C143.318 8.14017 132.244 19.6774 132.244 33.9138ZM280.946 51.6541L280.948 51.6537C284.439 61.3498 292.336 67.8205 301.884 67.8205C313.172 67.8205 323 58.8542 323 44.9881C323 32.9737 315.743 25.0259 303.807 24.9333C297.469 24.8407 291.778 27.1553 287.37 30.6663L290.674 7.74136H321.433L322.63 0.534142H288.93L284.336 32.7031L287 33.4438C290.952 30.4882 295.268 28.544 300.039 28.544C309.497 28.544 314.639 35.8438 314.639 45.1804C314.639 55.7206 307.938 63.3908 299.306 63.3908C293.252 63.3908 286.636 59.602 282.506 51.3764L280.948 51.6537L280.946 51.647V51.6541ZM280.433 7.76983H254.097C247.581 7.76983 245.836 11.0174 244.647 15.4684L243.272 15.2833L244.832 7.30692L246.206 0.541249H287.413C274.195 18.716 266.674 38.9275 264.196 67.2935H254.468C258.691 39.6682 271.168 18.4311 280.441 7.76983H280.433ZM62.1658 67.2935V46.5335H73.8028C92.4903 46.5335 102.945 37.667 102.945 22.3053C102.945 8.95204 93.4659 0.541249 76.7797 0.541249H53.4132V67.2935H62.1658ZM62.1658 44.4398V8.68141H74.0734C88.324 8.68141 95.1823 15.0483 95.1823 26.1582C95.1823 37.2681 89.9122 44.4398 73.5321 44.4398H62.1658ZM108.984 0.541249H117.815V67.2935H108.984V0.541249ZM239.434 67.2935H248.749L221.814 0.541249H213.14L186.298 67.2935H195.428L202.372 49.9591H232.582L239.434 67.2935ZM217.52 11.6939L221.814 22.7611L231.771 47.8724H203.184L213.14 22.7611L217.52 11.6939ZM8.87371 34.5904V58.8827H47.3739V67.2935H0V0.541249H47.1888V8.67429H8.87371V32.5037H43.9768V34.5904H8.87371Z" fill="#463436"/>
</svg>
